<svg width="40" height="40" viewBox="0 0 40 40" fill="none" xmlns="http://www.w3.org/2000/svg"><path fill-rule="evenodd" clip-rule="evenodd" d="M33.433 5.517c.421.27.78.629 1.05 1.05a9.15 9.15 0 0 1 .517 11.2v13.9A3.333 3.333 0 0 1 31.667 35H8.333A3.333 3.333 0 0 1 5 31.667V8.334A3.333 3.333 0 0 1 8.333 5h13.9a9.15 9.15 0 0 1 11.2.517zm-25.1 26.15h23.334V20.65a9 9 0 0 1-4.167 1.017 9.167 9.167 0 0 1-9.167-9.167 9 9 0 0 1 1.017-4.166H8.333v23.333zm20.834-17.5h2a1.667 1.667 0 0 0 0-3.333h-2v-2a1.667 1.667 0 1 0-3.334 0v2h-2a1.667 1.667 0 0 0 0 3.333h2v2a1.667 1.667 0 0 0 3.334 0v-2zm-15.834-2.5a1.566 1.566 0 0 0-1.666 1.667A1.566 1.566 0 0 0 13.334 15 1.566 1.566 0 0 0 15 13.334a1.566 1.566 0 0 0-1.666-1.667zm15 18.333a1.665 1.665 0 0 1-1.183-.483l-5.35-5.35-2.167 2.7a1.667 1.667 0 0 1-2.216.35l-1.367-.9-3.2 3.2a1.674 1.674 0 1 1-2.367-2.367l4.167-4.166a1.666 1.666 0 0 1 2.1-.2l1.233.816 2.384-2.966a1.667 1.667 0 0 1 1.893-.53c.221.083.422.213.59.38l6.667 6.666A1.667 1.667 0 0 1 28.333 30z" fill="#8D96AA"/></svg>